<svg data-v-0dd9719b="" version="1.0" xmlns="http://www.w3.org/2000/svg" xmlns:xlink="http://www.w3.org/1999/xlink"
  width="100%" height="100%" viewBox="0 0 340.000000 250.000000" preserveAspectRatio="xMidYMid meet"
  color-interpolation-filters="sRGB" style="margin: auto;">
  <rect data-v-0dd9719b="" x="0" y="0" width="100%" height="100%" fill="#ffffff" fill-opacity="0" class="background">
  </rect>
  <!---->
  <g data-v-0dd9719b="" class="iconmbgsvg" transform="translate(81.60000610351562,67.85714340209961)">
    <g fill="#515255" hollow-target="textRect">
      <g transform="translate(25.899993896484375,0)" mask="url(#dcf5bfb2-661f-4ac8-9d24-cd3c4e50b84f)">
        <g>
          <rect fill="#515255" fill-opacity="0" stroke-width="2" x="0" y="0" width="125" height="114.28571428571429"
            class="image-rect"></rect> <svg filter="url(#colors8031622036)" x="0" y="0" width="125"
            height="114.28571428571429" filtersec="colorsf2388917439" class="image-svg-svg primary"
            style="overflow: visible;"><svg fill="#fe5f55" xmlns="http://www.w3.org/2000/svg"
              xmlns:xlink="http://www.w3.org/1999/xlink" version="1.1" x="0px" y="0px"
              viewBox="11.899999618530273 13.199999809265137 80.5 73.5999984741211"
              style="enable-background:new 0 0 100 100;" xml:space="preserve">
              <g>
                <rect x="11.9" y="39.5" width="8" height="20.9"></rect>
              </g>
              <g>
                <rect x="30" y="25.6" width="8" height="48.9"></rect>
              </g>
              <g>
                <rect x="48.1" y="13.2" width="8" height="73.6"></rect>
              </g>
              <g>
                <rect x="84.4" y="39.5" width="8" height="20.9"></rect>
              </g>
              <g>
                <rect x="66.3" y="25.6" width="8" height="48.9"></rect>
              </g>
            </svg></svg>
          <defs>
            <filter id="colors8031622036">
              <feColorMatrix type="matrix" values="0 0 0 0 0.9921875  0 0 0 0 0.37109375  0 0 0 0 0.33203125  0 0 0 1 0"
                class="icon-fecolormatrix"></feColorMatrix>
            </filter>
            <filter id="colorsf2388917439">
              <feColorMatrix type="matrix"
                values="0 0 0 0 0.99609375  0 0 0 0 0.99609375  0 0 0 0 0.99609375  0 0 0 1 0"
                class="icon-fecolormatrix"></feColorMatrix>
            </filter>
            <filter id="colorsb3245105313">
              <feColorMatrix type="matrix" values="0 0 0 0 0  0 0 0 0 0  0 0 0 0 0  0 0 0 1 0"
                class="icon-fecolormatrix"></feColorMatrix>
            </filter>
          </defs>
        </g>
      </g>
      <g transform="translate(0,43.662856101989746)">
        <g data-gra="path-name" fill-rule="" class="tp-name">
          <g transform="scale(1)">
            <g>
              <path
                d="M2.6 0L2.6-19.48 22.28-19.48Q24.96-19.48 26.36-19.08 27.76-18.68 28.72-17.68L28.72-17.68Q30.48-15.76 30.48-12.4L30.48-12.4 30.48 0 25.12 0 25.12-11.56Q25.12-12.96 25-13.52 24.88-14.08 24.44-14.52L24.44-14.52Q23.6-15.32 21.92-15.32L21.92-15.32 19.08-15.32 19.08 0 13.72 0 13.72-15.32 7.96-15.32 7.96 0 2.6 0ZM44.48-19.76L44.48-19.76Q49.88-19.76 52.44-16.64L52.44-16.64Q54.8-13.8 54.8-9.48L54.8-9.48Q54.8-4.92 51.84-2.2L51.84-2.2Q49.12 0.28 44.4 0.28L44.4 0.28Q39.52 0.28 36.76-2.52L36.76-2.52Q34.2-5.04 34.2-9.88L34.2-9.88Q34.2-13.96 36.64-16.68L36.64-16.68Q39.36-19.72 44.48-19.76ZM44.52-15.68L44.52-15.68Q39.68-15.68 39.68-9.68L39.68-9.68Q39.68-7.24 40.48-5.96L40.48-5.96Q41.8-3.8 44.56-3.8L44.56-3.8Q49.32-3.8 49.32-9.76L49.32-9.76Q49.32-15.6 44.52-15.68ZM58.76 0L58.76-19.48 69.08-19.48Q71.4-19.48 72.62-19.14 73.84-18.8 74.84-17.92L74.84-17.92Q76.88-16.04 76.88-12L76.88-12 76.88 0 71.52 0 71.52-12.6Q71.52-14.04 70.88-14.68 70.24-15.32 68.76-15.32L68.76-15.32 64.12-15.32 64.12 0 58.76 0ZM79.92-19.48L83.32-19.48 83.32-26.68 88.68-26.68 88.68-19.48 93.64-19.48 93.64-15.32 88.68-15.32 88.68-8.24Q88.68-5.76 89.12-5.12L89.12-5.12Q89.8-4.16 91.52-4.16L91.52-4.16 93.64-4.16 93.64 0 89.76 0Q86.28 0 84.8-1.68 83.32-3.36 83.32-7.32L83.32-7.32 83.32-15.32 79.92-15.32 79.92-19.48ZM106.28-19.76L106.28-19.76Q111.68-19.76 114.24-16.64L114.24-16.64Q116.6-13.8 116.6-9.48L116.6-9.48Q116.6-4.92 113.64-2.2L113.64-2.2Q110.92 0.28 106.2 0.28L106.2 0.28Q101.32 0.28 98.56-2.52L98.56-2.52Q96-5.04 96-9.88L96-9.88Q96-13.96 98.44-16.68L98.44-16.68Q101.16-19.72 106.28-19.76ZM106.32-15.68L106.32-15.68Q101.48-15.68 101.48-9.68L101.48-9.68Q101.48-7.24 102.28-5.96L102.28-5.96Q103.6-3.8 106.36-3.8L106.36-3.8Q111.12-3.8 111.12-9.76L111.12-9.76Q111.12-15.6 106.32-15.68ZM117.96-12.72L127.28-12.72 127.28-7.92 117.96-7.92 117.96-12.72ZM136.76-11.84L143.32-11.84Q143.32-13.88 142.5-14.6 141.68-15.32 139.24-15.32L139.24-15.32 130.2-15.32 130.2-19.48 139.24-19.48Q141.68-19.48 142.6-19.38 143.52-19.28 144.48-19L144.48-19Q148.92-17.32 148.68-10.96L148.68-10.96 148.68 0 137.4 0Q134.36 0 133.2-0.18 132.04-0.36 131.16-0.92L131.16-0.92Q128.8-2.52 128.8-5.76L128.8-5.76Q128.8-7.72 129.74-9.26 130.68-10.8 132.24-11.36L132.24-11.36Q133.6-11.84 136.76-11.84L136.76-11.84ZM143.32-4.16L143.32-7.68 137.16-7.68 136.24-7.68Q135.32-7.68 134.78-7.2 134.24-6.72 134.24-5.88L134.24-5.88Q134.24-4.96 134.9-4.56 135.56-4.16 137.16-4.16L137.16-4.16 143.32-4.16ZM162.64-19.48L169.96-19.48 169.96-15.32 163.56-15.32Q160.32-15.32 159.08-13.88L159.08-13.88Q157.88-12.52 157.88-9.72L157.88-9.72Q157.88-6.6 159.84-5.16L159.84-5.16Q160.64-4.6 161.58-4.38 162.52-4.16 164.2-4.16L164.2-4.16 169.96-4.16 169.96 0 162.64 0Q159.68 0 157.96-0.6 156.24-1.2 154.92-2.68L154.92-2.68Q152.4-5.48 152.4-9.8L152.4-9.8Q152.4-15 155.4-17.56L155.4-17.56Q156.6-18.6 158.28-19.04 159.96-19.48 162.64-19.48L162.64-19.48ZM179.4-26.68L179.4 0 174.04 0 174.04-26.68 179.4-26.68Z"
                transform="translate(-2.5999999046325684, 26.68000030517578)"></path>
            </g>
            <!---->
            <!---->
            <!---->
            <!---->
            <!---->
            <!---->
            <!---->
          </g>
        </g>
        <!---->
      </g>
    </g>
  </g>
  <mask id="dcf5bfb2-661f-4ac8-9d24-cd3c4e50b84f">
    <g fill="white">
      <g>
        <rect fill-opacity="1" stroke-width="2" x="0" y="0" width="125" height="114.28571428571429" class="image-rect">
        </rect> <svg x="0" y="0" width="125" height="114.28571428571429" class="image-svg-svg primary"
          style="overflow: visible;" filter="url(#colorsf2388917439)"><svg xmlns="http://www.w3.org/2000/svg"
            xmlns:xlink="http://www.w3.org/1999/xlink" version="1.1" x="0px" y="0px"
            viewBox="11.899999618530273 13.199999809265137 80.5 73.5999984741211"
            style="enable-background:new 0 0 100 100;" xml:space="preserve">
            <g>
              <rect x="11.9" y="39.5" width="8" height="20.9"></rect>
            </g>
            <g>
              <rect x="30" y="25.6" width="8" height="48.9"></rect>
            </g>
            <g>
              <rect x="48.1" y="13.2" width="8" height="73.6"></rect>
            </g>
            <g>
              <rect x="84.4" y="39.5" width="8" height="20.9"></rect>
            </g>
            <g>
              <rect x="66.3" y="25.6" width="8" height="48.9"></rect>
            </g>
          </svg></svg>
        <defs> </defs>
      </g>
    </g>
    <g transform="translate(-25.899993896484375,43.662856101989746)">
      <rect fill="black" fill-opacity="1" x="-3.5" y="-3.5" width="183.79998779296875" height="33.96000099182129">
      </rect>
      <rect fill="black" fill-opacity="1" x="-3.5" y="-3.5"></rect>
    </g>
    <g transform="translate(-25.899993896484375,43.662856101989746)" fill="black">
      <g data-gra="path-name" fill-rule="" class="tp-name">
        <g transform="scale(1)">
          <g>
            <path
              d="M2.6 0L2.6-19.48 22.28-19.48Q24.96-19.48 26.36-19.08 27.76-18.68 28.72-17.68L28.72-17.68Q30.48-15.76 30.48-12.4L30.48-12.4 30.48 0 25.12 0 25.12-11.56Q25.12-12.96 25-13.52 24.88-14.08 24.44-14.52L24.44-14.52Q23.6-15.32 21.92-15.32L21.92-15.32 19.08-15.32 19.08 0 13.72 0 13.72-15.32 7.96-15.32 7.96 0 2.6 0ZM44.48-19.76L44.48-19.76Q49.88-19.76 52.44-16.64L52.44-16.64Q54.8-13.8 54.8-9.48L54.8-9.48Q54.8-4.92 51.84-2.2L51.84-2.2Q49.12 0.28 44.4 0.28L44.4 0.28Q39.52 0.28 36.76-2.52L36.76-2.52Q34.2-5.04 34.2-9.88L34.2-9.88Q34.2-13.96 36.64-16.68L36.64-16.68Q39.36-19.72 44.48-19.76ZM44.52-15.68L44.52-15.68Q39.68-15.68 39.68-9.68L39.68-9.68Q39.68-7.24 40.48-5.96L40.48-5.96Q41.8-3.8 44.56-3.8L44.56-3.8Q49.32-3.8 49.32-9.76L49.32-9.76Q49.32-15.6 44.52-15.68ZM58.76 0L58.76-19.48 69.08-19.48Q71.4-19.48 72.62-19.14 73.84-18.8 74.84-17.92L74.84-17.92Q76.88-16.04 76.88-12L76.88-12 76.88 0 71.52 0 71.52-12.6Q71.52-14.04 70.88-14.68 70.24-15.32 68.76-15.32L68.76-15.32 64.12-15.32 64.12 0 58.76 0ZM79.92-19.48L83.32-19.48 83.32-26.68 88.68-26.68 88.68-19.48 93.64-19.48 93.64-15.32 88.68-15.32 88.68-8.24Q88.68-5.76 89.12-5.12L89.12-5.12Q89.8-4.16 91.52-4.16L91.52-4.16 93.64-4.16 93.64 0 89.76 0Q86.28 0 84.8-1.68 83.32-3.36 83.32-7.32L83.32-7.32 83.32-15.32 79.92-15.32 79.92-19.48ZM106.28-19.76L106.28-19.76Q111.68-19.76 114.24-16.64L114.24-16.64Q116.6-13.8 116.6-9.48L116.6-9.48Q116.6-4.92 113.64-2.2L113.64-2.2Q110.92 0.28 106.2 0.28L106.2 0.28Q101.32 0.28 98.56-2.52L98.56-2.52Q96-5.04 96-9.88L96-9.88Q96-13.96 98.44-16.68L98.44-16.68Q101.16-19.72 106.28-19.76ZM106.32-15.68L106.32-15.68Q101.48-15.68 101.48-9.68L101.48-9.68Q101.48-7.24 102.28-5.96L102.28-5.96Q103.6-3.8 106.36-3.8L106.36-3.8Q111.12-3.8 111.12-9.76L111.12-9.76Q111.12-15.6 106.32-15.68ZM117.96-12.72L127.28-12.72 127.28-7.92 117.96-7.92 117.96-12.72ZM136.76-11.84L143.32-11.84Q143.32-13.88 142.5-14.6 141.68-15.32 139.24-15.32L139.24-15.32 130.2-15.32 130.2-19.48 139.24-19.48Q141.68-19.48 142.6-19.38 143.52-19.28 144.48-19L144.48-19Q148.92-17.32 148.68-10.96L148.68-10.96 148.68 0 137.4 0Q134.36 0 133.2-0.18 132.04-0.36 131.16-0.92L131.16-0.92Q128.8-2.52 128.8-5.76L128.8-5.76Q128.8-7.72 129.74-9.26 130.68-10.8 132.24-11.36L132.24-11.36Q133.6-11.84 136.76-11.84L136.76-11.84ZM143.32-4.16L143.32-7.68 137.16-7.68 136.24-7.68Q135.32-7.68 134.78-7.2 134.24-6.72 134.24-5.88L134.24-5.88Q134.24-4.96 134.9-4.56 135.56-4.16 137.16-4.16L137.16-4.16 143.32-4.16ZM162.64-19.48L169.96-19.48 169.96-15.32 163.56-15.32Q160.32-15.32 159.08-13.88L159.08-13.88Q157.88-12.52 157.88-9.72L157.88-9.72Q157.88-6.6 159.84-5.16L159.84-5.16Q160.64-4.6 161.58-4.38 162.52-4.16 164.2-4.16L164.2-4.16 169.96-4.16 169.96 0 162.64 0Q159.68 0 157.96-0.6 156.24-1.2 154.92-2.68L154.92-2.68Q152.4-5.48 152.4-9.8L152.4-9.8Q152.4-15 155.4-17.56L155.4-17.56Q156.6-18.6 158.28-19.04 159.96-19.48 162.64-19.48L162.64-19.48ZM179.4-26.68L179.4 0 174.04 0 174.04-26.68 179.4-26.68Z"
              transform="translate(-2.5999999046325684, 26.68000030517578)"></path>
          </g>
        </g>
      </g>
    </g>
  </mask>
  <defs v-gra="od"></defs>
</svg>