<svg xmlns="http://www.w3.org/2000/svg" xmlns:xlink="http://www.w3.org/1999/xlink" width="100px" height="50px"
  viewBox="0 0 220 125">
  <g data-v-0dd9719b="" fill="#fff" class="bordersvg b-d1" transform="translate(0, 5)">
    <polyline stroke="#fff" stroke-width="3" fill-opacity="0" fill="#edeae2"
      points="102.49010467529297,20 102.49010467529297,10 204.98020935058594,0 204.98020935058594,114.67715454101562 102.49010467529297,104.67715454101562 102.49010467529297,94.67715454101562">
    </polyline>
    <g transform="translate(0,20)">
      <g>
        <rect data-gra="graph-name-bg" stroke-width="2" class="i-icon-bg" x="0" y="0" width="204.98020935058594"
          height="74.67715454101562" fill-opacity="0"></rect>
        <!---->
        <!---->
      </g>
      <g transform="translate(10,3)">
        <g data-gra="path-name" fill-rule="" class="tp-name">
          <g transform="scale(1)">
            <g>
              <path
                d="M24.2-31.68L27.64 0 15.96 0 15.27-7.93 6.04-7.93 2.49 0-2.34 0 12.37-31.68 24.2-31.68ZM13.77-25.14L7.68-11.57 14.92-11.57 13.77-25.14ZM47.59-31.68L40.81 0 30.03 0 36.77-31.68 47.59-31.68ZM85.96-12.12L83.96-2.69Q82.72-2.1 81.39-1.52 80.07-0.95 78.58-0.52 77.08-0.1 75.31 0.15 73.54 0.4 71.44 0.4L71.44 0.4Q64.76 0.4 61.14-2.59 57.52-5.59 57.52-12.57L57.52-12.57Q57.52-16.61 58.77-20.18 60.02-23.75 62.46-26.42 64.91-29.09 68.5-30.63 72.09-32.18 76.73-32.18L76.73-32.18Q78.92-32.18 80.75-31.88 82.57-31.58 84.04-31.11 85.51-30.63 86.68-30.08 87.85-29.53 88.8-29.04L88.8-29.04 87.01-19.76 78.03-19.76Q78.08-20.25 78.15-21.05 78.23-21.85 78.28-22.67 78.33-23.5 78.38-24.3 78.43-25.09 78.43-25.64L78.43-25.64Q78.43-26.04 78.38-26.57 78.33-27.09 78.13-27.59 77.93-28.09 77.5-28.41 77.08-28.74 76.38-28.74L76.38-28.74Q75.08-28.74 74.01-27.66 72.94-26.59 72.09-24.82 71.24-23.05 70.59-20.8 69.94-18.56 69.52-16.24 69.1-13.92 68.87-11.67 68.65-9.43 68.65-7.73L68.65-7.73Q68.65-7.23 68.7-6.49 68.75-5.74 69-5.04 69.25-4.34 69.77-3.84 70.29-3.34 71.19-3.34L71.19-3.34Q72.74-3.34 74.19-5.26 75.63-7.18 76.73-12.12L76.73-12.12 85.96-12.12ZM108.21-32.18L108.21-32.18Q112.5-32.18 115.17-31.08 117.84-29.98 119.38-27.69L119.38-27.69Q120.38-26.14 120.93-24.2 121.48-22.25 121.48-19.71L121.48-19.71Q121.48-17.51 121.08-15.32 120.68-13.12 119.96-11.1 119.24-9.08 118.21-7.31 117.19-5.54 115.94-4.19L115.94-4.19Q113.6-1.65 110.53-0.62 107.46 0.4 102.97 0.4L102.97 0.4Q98.63 0.4 95.99-0.5 93.34-1.4 91.8-3.39L91.8-3.39Q90.7-4.79 90.07-6.93 89.45-9.08 89.45-12.32L89.45-12.32Q89.45-17.86 91.42-22.23 93.39-26.59 97.03-29.14L97.03-29.14Q99.23-30.68 101.92-31.43 104.62-32.18 108.21-32.18ZM102.57-3.09L102.57-3.09Q103.72-3.09 104.74-4.12 105.76-5.14 106.64-6.86 107.51-8.58 108.23-10.78 108.96-12.97 109.46-15.32 109.96-17.66 110.23-19.98 110.5-22.3 110.5-24.2L110.5-24.2Q110.5-26.79 109.98-27.76 109.46-28.74 108.46-28.74L108.46-28.74Q107.31-28.74 106.26-27.74 105.22-26.74 104.29-25.07 103.37-23.4 102.65-21.23 101.92-19.06 101.4-16.76 100.88-14.47 100.6-12.22 100.33-9.98 100.33-8.08L100.33-8.08Q100.33-5.24 100.95-4.17 101.57-3.09 102.57-3.09ZM136.2 0L121.88 0 128.61-31.68 142.03-31.68Q145.13-31.68 147.45-31.06 149.77-30.43 151.29-28.99 152.81-27.54 153.58-25.19 154.36-22.85 154.36-19.46L154.36-19.46Q154.36-15.81 153.43-12.32 152.51-8.83 150.37-6.09 148.22-3.34 144.75-1.67 141.29 0 136.2 0L136.2 0ZM133.4-3.49L135.55-3.49Q137.2-3.49 138.47-4.86 139.74-6.24 140.66-8.36 141.59-10.48 142.21-13.05 142.83-15.62 143.21-18.01 143.58-20.4 143.76-22.3 143.93-24.2 143.93-24.99L143.93-24.99Q143.93-26.54 143.31-27.41 142.68-28.29 141.14-28.29L141.14-28.29 138.74-28.29 133.4-3.49ZM154.91 0L161.64-31.68 182.64-31.68 181.85-27.89 171.67-27.89 169.57-18.26 178.1-18.26 177.31-14.52 168.77-14.52 166.48-3.84 176.66-3.84 175.91 0 154.91 0Z"
                transform="translate(2.3399999141693115, 32.18000030517578)"></path>
            </g>

            <g data-gra="path-name-1" fill="#fff" transform="translate(0,35.58000564575195)">
              <g transform="scale(1.0106)">
                <path
                  d="M32.13-24.96L32.13-24.96Q32.13-21.92 30.43-19.34 28.73-16.76 24.81-15.42L24.81-15.42 30.79 0 19.29 0 14.75-14.29 14.18-14.29 11.14 0 0 0 6.96-32.75 20.53-32.75Q22.9-32.75 25.01-32.47 27.13-32.18 28.7-31.33 30.28-30.48 31.2-28.96 32.13-27.44 32.13-24.96ZM14.85-17.59L17.28-17.59Q18.62-17.59 19.57-18.49 20.53-19.39 21.12-20.68 21.71-21.97 21.97-23.44 22.23-24.91 22.23-25.99L22.23-25.99Q22.23-27.34 21.77-28.29 21.3-29.24 19.75-29.24L19.75-29.24 17.43-29.24 14.85-17.59ZM32.65 0L39.61-32.75 61.32-32.75 60.5-28.83 49.98-28.83 47.81-18.88 56.63-18.88 55.81-15.01 46.99-15.01 44.61-3.97 55.13-3.97 54.36 0 32.65 0ZM64.73 0L62.82-32.75 74.58-32.75 76.33-10.57 87.06-32.75 92.17-32.75 76.9 0 64.73 0ZM106.71-32.75L99.7 0 88.56 0 95.52-32.75 106.71-32.75ZM105.37 0L112.33-32.75 134.05-32.75 133.22-28.83 122.7-28.83 120.53-18.88 129.35-18.88 128.53-15.01 119.71-15.01 117.34-3.97 127.86-3.97 127.08 0 105.37 0ZM137.5 0L135.34-32.75 147.92-32.75 148.8-10.42 157.41-32.75 167.62-32.75 168.96-10.42 177.63-32.75 183.04-32.75 170.3 0 158.7 0 157.62-18.52 149.88 0 137.5 0Z"
                  transform="translate(0, 32.75)"></path>
              </g>
            </g>
          </g>
        </g>
        <!---->
      </g>
    </g>
  </g>
  <defs v-gra="od"></defs>
</svg>